<?xml version="1.0" encoding="UTF-8" standalone="no"?>
<!-- Uploaded to: SVG Repo, www.svgrepo.com, Generator: SVG Repo Mixer Tools -->

<svg
   fill="#000000"
   width="800px"
   height="800px"
   viewBox="0 0 24 24"
   version="1.1"
   id="svg1"
   sodipodi:docname="library_icon_dark.svg"
   inkscape:version="1.3 (0e150ed6c4, 2023-07-21)"
   xmlns:inkscape="http://www.inkscape.org/namespaces/inkscape"
   xmlns:sodipodi="http://sodipodi.sourceforge.net/DTD/sodipodi-0.dtd"
   xmlns="http://www.w3.org/2000/svg"
   xmlns:svg="http://www.w3.org/2000/svg">
  <defs
     id="defs1" />
  <sodipodi:namedview
     id="namedview1"
     pagecolor="#ffffff"
     bordercolor="#000000"
     borderopacity="0.25"
     inkscape:showpageshadow="2"
     inkscape:pageopacity="0.0"
     inkscape:pagecheckerboard="0"
     inkscape:deskcolor="#d1d1d1"
     inkscape:zoom="0.9575"
     inkscape:cx="400"
     inkscape:cy="400"
     inkscape:window-width="1920"
     inkscape:window-height="962"
     inkscape:window-x="0"
     inkscape:window-y="0"
     inkscape:window-maximized="1"
     inkscape:current-layer="svg1" />
  <path
     d="M6,23H18a3,3,0,0,0,3-3V4a3,3,0,0,0-3-3H6A3,3,0,0,0,3,4V20A3,3,0,0,0,6,23ZM19,9.5v5h-.132L17.9,12.553a1,1,0,0,0-1.79.894l.527,1.053H15V12a1,1,0,0,0-2,0v2.5H12V13a1,1,0,0,0-2,0v1.5H5v-5ZM18,21H14V19a1,1,0,0,0-2,0v2H11V19a1,1,0,0,0-2,0v2H8V20a1,1,0,0,0-2,0v1a1,1,0,0,1-1-1V16.5H19V20A1,1,0,0,1,18,21ZM6,3H18a1,1,0,0,1,1,1V7.5H14.868L13.9,5.553a1,1,0,1,0-1.79.894L12.632,7.5H11V5A1,1,0,0,0,9,5V7.5H8V6A1,1,0,0,0,6,6V7.5H5V4A1,1,0,0,1,6,3Z"
     id="path1"
     style="fill:#989898;fill-opacity:1" />
</svg>
