<?xml version="1.0" encoding="UTF-8" standalone="no"?>
<!-- Uploaded to: SVG Repo, www.svgrepo.com, Generator: SVG Repo Mixer Tools -->

<svg
   fill="#000000"
   width="32"
   height="32"
   viewBox="-2 0 22 22"
   version="1.1"
   id="svg1"
   sodipodi:docname="library_icon.svg"
   inkscape:version="1.3 (0e150ed6c4, 2023-07-21)"
   xmlns:inkscape="http://www.inkscape.org/namespaces/inkscape"
   xmlns:sodipodi="http://sodipodi.sourceforge.net/DTD/sodipodi-0.dtd"
   xmlns="http://www.w3.org/2000/svg"
   xmlns:svg="http://www.w3.org/2000/svg">
  <defs
     id="defs1" />
  <sodipodi:namedview
     id="namedview1"
     pagecolor="#ffffff"
     bordercolor="#000000"
     borderopacity="0.25"
     inkscape:showpageshadow="2"
     inkscape:pageopacity="0.0"
     inkscape:pagecheckerboard="0"
     inkscape:deskcolor="#d1d1d1"
     inkscape:zoom="3.83"
     inkscape:cx="66.579635"
     inkscape:cy="-15.926893"
     inkscape:window-width="1920"
     inkscape:window-height="962"
     inkscape:window-x="0"
     inkscape:window-y="0"
     inkscape:window-maximized="1"
     inkscape:current-layer="svg1" />
  <path
     d="m 3,22 h 12 a 3,3 0 0 0 3,-3 V 3 A 3,3 0 0 0 15,0 H 3 A 3,3 0 0 0 0,3 v 16 a 3,3 0 0 0 3,3 z M 16,8.5 v 5 H 15.868 L 14.9,11.553 a 1.0004169,1.0004169 0 0 0 -1.79,0.894 L 13.637,13.5 H 12 V 11 a 1,1 0 0 0 -2,0 v 2.5 H 9 V 12 a 1,1 0 0 0 -2,0 v 1.5 H 2 v -5 z M 15,20 h -4 v -2 a 1,1 0 0 0 -2,0 v 2 H 8 v -2 a 1,1 0 0 0 -2,0 v 2 H 5 v -1 a 1,1 0 0 0 -2,0 v 1 A 1,1 0 0 1 2,19 V 15.5 H 16 V 19 a 1,1 0 0 1 -1,1 z M 3,2 h 12 a 1,1 0 0 1 1,1 V 6.5 H 11.868 L 10.9,4.553 A 1.0004169,1.0004169 0 1 0 9.11,5.447 L 9.632,6.5 H 8 V 4 A 1,1 0 0 0 6,4 V 6.5 H 5 V 5 A 1,1 0 0 0 3,5 V 6.5 H 2 V 3 A 1,1 0 0 1 3,2 Z"
     id="path1"
     style="fill:#8e8ea9;fill-opacity:1" />
</svg>
